<?xml version="1.0" encoding="utf-8"?>
<?xml-stylesheet type="text/xsl" href="rss1.xsl"?>
<rss version="2.0" xmlns:atom="http://www.w3.org/2005/Atom" xmlns:content="http://purl.org/rss/1.0/modules/content/" xmlns:dc="http://purl.org/dc/elements/1.1/" xmlns:media="http://search.yahoo.com/mrss/">
<channel>
 <title>Getty</title>
 <link>http://www.gettyimg.com/</link>
 <atom:link href="http://www.gettyimg.com/" rel="self" type="application/rss+xml" />

 
                <item>
                <title><![CDATA[【MASTER &amp; MASTER RIP】MASTER - Harry Styles - Daylight (Master 4K)]]></title>
                <link><![CDATA[https://sharemania.us/threads/harry-styles-daylight-master-4k.224926/]]></link>
                <description><![CDATA[<article>
<blockquote class="messageText SelectQuoteContainer ugc baseHtml">
<img src="https://images2.imgbox.com/89/3d/tAnxGpTE_o.jpg" class="bbCodeImage LbImage" alt="[​IMG]" data-url="https://images2.imgbox.com/89/3d/tAnxGpTE_o.jpg" style=""> <br>
<br>
<div data-s9e-mediaembed="youtube" style="display:inline-block;width:100%;max-width:640px"><div style="overflow:hidden;position:relative;padding-bottom:56.25%"><iframe allowfullscreen="" scrolling="no" style="background:url(https://i.ytimg.com/vi/-UJCMfuFtSQ/hqdefault.jpg) 50% 50% / cover;border:0;height:100%;left:0;position:absolute;width:100%" src="https://www.youtube.com/embed/-UJCMfuFtSQ"></iframe></div></div><br>
<br>
<div class="ToggleTriggerAnchor bbCodeSpoilerContainer">
<button type="button" class="button bbCodeSpoilerButton ToggleTrigger Tooltip JsOnly" data-target="> .SpoilerTarget"><span>Spoiler: <span class="SpoilerTitle">Media Info</span></span></button>
<div class="SpoilerTarget bbCodeSpoilerText">Format : MPEG-4<br>
Format profile : Base Media / Version 2<br>
Codec ID : mp42 (mp42/mp41)<br>
File size : 875 MiB<br>
Duration : 2 min 45 s<br>
Overall bit rate mode : Variable<br>
Overall bit rate : 44.3 Mb/s<br>
Frame rate : 25.000 FPS<br>
Encoded date : 2023-07-20 19:58:37 UTC<br>
Tagged date : 2023-07-20 20:02:23 UTC<br>
TIM : 00:00:00:00<br>
TSC : 25<br>
TSZ : 1<br>
<br>
Video<br>
ID : 1<br>
Format : AVC<br>
Format/Info : Advanced Video Codec<br>
Format profile : Main@L5.1<br>
Format settings : CABAC / 2 Ref Frames<br>
Format settings, CABAC : Yes<br>
Format settings, Reference : 2 frames<br>
Format settings, GOP : M=2, N=50<br>
Codec ID : avc1<br>
Codec ID/Info : Advanced Video Coding<br>
Duration : 2 min 45 s<br>
Bit rate mode : Variable<br>
Bit rate : 44.0 Mb/s<br>
Maximum bit rate : 768 kb/s<br>
Width : 3 200 pixels<br>
Height : 1 800 pixels<br>
Display aspect ratio : 16:9<br>
Frame rate mode : Constant<br>
Frame rate : 25.000 FPS<br>
Color space : YUV<br>
Chroma subsampling : 4:2:0<br>
Bit depth : 8 bits<br>
Scan type : Progressive<br>
Bits/(Pixel*Frame) : 0.306<br>
Stream size : 869 MiB (99%)<br>
Language : English<br>
Encoded date : 2023-07-20 19:58:38 UTC<br>
Tagged date : 2023-07-20 19:58:38 UTC<br>
Color range : Limited<br>
Color primaries : BT.709<br>
Transfer characteristics : BT.709<br>
Matrix coefficients : BT.709<br>
Codec configuration box : avcC<br>
<br>
Audio<br>
ID : 2<br>
Format : AAC LC<br>
Format/Info : Advanced Audio Codec Low Complexity<br>
Codec ID : mp4a-40-2<br>
Duration : 2 min 45 s<br>
Source duration : 2 min 45 s<br>
Bit rate mode : Variable<br>
Bit rate : 319 kb/s<br>
Channel(s) : 2 channels<br>
Channel layout : L R<br>
Sampling rate : 48.0 kHz<br>
Frame rate : 46.875 FPS (1024 SPF)<br>
Compression mode : Lossy<br>
Stream size : 6.26 MiB (1%)<br>
Source stream size : 6.26 MiB (1%)<br>
Language : English<br>
Encoded date : 2023-07-20 19:58:39 UTC<br>
Tagged date : 2023-07-20 19:58:39 UTC</div>
</div><br>
<div class="bbCodeBlock bbCodeVfcHH HiddenContent">
<div class="attribution type">Hidden Content:</div>
<blockquote>You must reply before you can see the hidden data contained here.</blockquote>
</div>
<div class="messageTextEndMarker">&nbsp;</div>
</blockquote>
</article>]]></description>
                <author><![CDATA[Eric Lyn]]></author>
                </item>

                
                <item>
                <title><![CDATA[【MASTER &amp; MASTER RIP】MASTER - DOJA CAT - ATTENTION (Master 4K)]]></title>
                <link><![CDATA[https://sharemania.us/threads/doja-cat-attention-master-4k.224929/]]></link>
                <description><![CDATA[<article>
<blockquote class="messageText SelectQuoteContainer ugc baseHtml">
<img src="https://images2.imgbox.com/30/30/PKWvUHli_o.jpg" class="bbCodeImage LbImage" alt="[​IMG]" data-url="https://images2.imgbox.com/30/30/PKWvUHli_o.jpg" style=""><br>
<br>
<div data-s9e-mediaembed="youtube" style="display:inline-block;width:100%;max-width:640px"><div style="overflow:hidden;position:relative;padding-bottom:56.25%"><iframe allowfullscreen="" scrolling="no" style="background:url(https://i.ytimg.com/vi/agXQQDasq0U/hqdefault.jpg) 50% 50% / cover;border:0;height:100%;left:0;position:absolute;width:100%" src="https://www.youtube.com/embed/agXQQDasq0U"></iframe></div></div><br>
<br>
<div class="ToggleTriggerAnchor bbCodeSpoilerContainer">
<button type="button" class="button bbCodeSpoilerButton ToggleTrigger Tooltip JsOnly" data-target="> .SpoilerTarget"><span>Spoiler: <span class="SpoilerTitle">Media Info</span></span></button>
<div class="SpoilerTarget bbCodeSpoilerText">
<div class="bbCodeBlock bbCodeVfcHH HiddenContent">
<div class="attribution type">Hidden Content:</div>
<blockquote>You must reply before you can see the hidden data contained here.</blockquote>
</div>Format : MPEG-4<br>
Format profile : Base Media / Version 2<br>
Codec ID : mp42 (mp42/mp41)<br>
File size : 847 MiB<br>
Duration : 4 min 40 s<br>
Overall bit rate mode : Variable<br>
Overall bit rate : 25.3 Mb/s<br>
Frame rate : 23.976 FPS<br>
Encoded date : 2023-06-16 17:18:36 UTC<br>
Tagged date : 2023-06-16 17:19:20 UTC<br>
TIM : 00:00:00:00<br>
TSC : 24000<br>
TSZ : 1001<br>
<br>
Video<br>
ID : 1<br>
Format : AVC<br>
Format/Info : Advanced Video Codec<br>
Format profile : Main@L5.1<br>
Format settings : CABAC / 4 Ref Frames<br>
Format settings, CABAC : Yes<br>
Format settings, Reference : 4 frames<br>
Codec ID : avc1<br>
Codec ID/Info : Advanced Video Coding<br>
Duration : 4 min 40 s<br>
Bit rate : 25.0 Mb/s<br>
Width : 3 840 pixels<br>
Height : 2 160 pixels<br>
Display aspect ratio : 16:9<br>
Frame rate mode : Constant<br>
Frame rate : 23.976 (24000/1001) FPS<br>
Color space : YUV<br>
Chroma subsampling : 4:2:0<br>
Bit depth : 8 bits<br>
Scan type : Progressive<br>
Bits/(Pixel*Frame) : 0.125<br>
Stream size : 836 MiB (99%)<br>
Language : English<br>
Encoded date : 2023-06-16 17:18:36 UTC<br>
Tagged date : 2023-06-16 17:18:36 UTC<br>
Color range : Limited<br>
Color primaries : BT.709<br>
Transfer characteristics : BT.709<br>
Matrix coefficients : BT.709<br>
Codec configuration box : avcC<br>
<br>
Audio<br>
ID : 2<br>
Format : AAC LC<br>
Format/Info : Advanced Audio Codec Low Complexity<br>
Codec ID : mp4a-40-2<br>
Duration : 4 min 40 s<br>
Source duration : 4 min 40 s<br>
Bit rate mode : Variable<br>
Bit rate : 317 kb/s<br>
Maximum bit rate : 503 kb/s<br>
Channel(s) : 2 channels<br>
Channel layout : L R<br>
Sampling rate : 48.0 kHz<br>
Frame rate : 46.875 FPS (1024 SPF)<br>
Compression mode : Lossy<br>
Stream size : 10.6 MiB (1%)<br>
Source stream size : 10.6 MiB (1%)<br>
Language : English<br>
Encoded date : 2023-06-16 17:18:36 UTC<br>
Tagged date : 2023-06-16 17:18:36 UTC</div>
</div><br>
<div class="bbCodeBlock bbCodeVfcHH HiddenContent">
<div class="attribution type">Hidden Content:</div>
<blockquote>You must reply before you can see the hidden data contained here.</blockquote>
</div>
<div class="messageTextEndMarker">&nbsp;</div>
</blockquote>
</article>]]></description>
                <author><![CDATA[Eric Lyn]]></author>
                </item>

                
                <item>
                <title><![CDATA[【MASTER &amp; MASTER RIP】MASTER - Sam Smith - I'M NOT HERE TO MAKE FRIENDS (Master 1080p)]]></title>
                <link><![CDATA[https://sharemania.us/threads/sam-smith-im-not-here-to-make-friends-master-1080p.224925/]]></link>
                <description><![CDATA[<article>
<blockquote class="messageText SelectQuoteContainer ugc baseHtml">
<img src="https://images2.imgbox.com/f3/e3/G9gEdGjL_o.jpg" class="bbCodeImage LbImage" alt="[​IMG]" data-url="https://images2.imgbox.com/f3/e3/G9gEdGjL_o.jpg" style=""> <div data-s9e-mediaembed="youtube" style="display:inline-block;width:100%;max-width:640px"><div style="overflow:hidden;position:relative;padding-bottom:56.25%"><iframe allowfullscreen="" scrolling="no" style="background:url(https://i.ytimg.com/vi/hYjHhqLSiN4/hqdefault.jpg) 50% 50% / cover;border:0;height:100%;left:0;position:absolute;width:100%" src="https://www.youtube.com/embed/hYjHhqLSiN4"></iframe></div></div><br>
<br>
<div class="ToggleTriggerAnchor bbCodeSpoilerContainer">
<button type="button" class="button bbCodeSpoilerButton ToggleTrigger Tooltip JsOnly" data-target="> .SpoilerTarget"><span>Spoiler: <span class="SpoilerTitle">Media Info</span></span></button>
<div class="SpoilerTarget bbCodeSpoilerText">Format : MPEG-4<br>
Format profile : Base Media / Version 2<br>
Codec ID : mp42 (mp42/mp41)<br>
File size : 494 MiB<br>
Duration : 4 min 2 s<br>
Overall bit rate mode : Variable<br>
Overall bit rate : 17.1 Mb/s<br>
Frame rate : 25.000 FPS<br>
Encoded date : 2023-01-24 10:36:24 UTC<br>
Tagged date : 2023-01-24 10:36:25 UTC<br>
TIM : 00:00:00:00<br>
TSC : 25<br>
TSZ : 1<br>
<br>
Video<br>
ID : 1<br>
Format : AVC<br>
Format/Info : Advanced Video Codec<br>
Format profile : High@L4.2<br>
Format settings : CABAC / 3 Ref Frames<br>
Format settings, CABAC : Yes<br>
Format settings, Reference : 3 frames<br>
Format settings, GOP : M=1, N=30<br>
Codec ID : avc1<br>
Codec ID/Info : Advanced Video Coding<br>
Duration : 4 min 2 s<br>
Bit rate : 16.8 Mb/s<br>
Width : 1 920 pixels<br>
Height : 1 080 pixels<br>
Display aspect ratio : 16:9<br>
Frame rate mode : Constant<br>
Frame rate : 25.000 FPS<br>
Color space : YUV<br>
Chroma subsampling : 4:2:0<br>
Bit depth : 8 bits<br>
Scan type : Progressive<br>
Bits/(Pixel*Frame) : 0.323<br>
Stream size : 485 MiB (98%)<br>
Language : English<br>
Encoded date : 2023-01-24 10:36:24 UTC<br>
Tagged date : 2023-01-24 10:36:24 UTC<br>
Codec configuration box : avcC<br>
<br>
Audio<br>
ID : 2<br>
Format : AAC LC<br>
Format/Info : Advanced Audio Codec Low Complexity<br>
Codec ID : mp4a-40-2<br>
Duration : 4 min 2 s<br>
Source duration : 4 min 2 s<br>
Bit rate mode : Variable<br>
Bit rate : 317 kb/s<br>
Maximum bit rate : 383 kb/s<br>
Channel(s) : 2 channels<br>
Channel layout : L R<br>
Sampling rate : 48.0 kHz<br>
Frame rate : 46.875 FPS (1024 SPF)<br>
Compression mode : Lossy<br>
Stream size : 9.18 MiB (2%)<br>
Source stream size : 9.18 MiB (2%)<br>
Language : English<br>
Encoded date : 2023-01-24 10:36:24 UTC<br>
Tagged date : 2023-01-24 10:36:24 UTC</div>
</div><br>
<div class="bbCodeBlock bbCodeVfcHH HiddenContent">
<div class="attribution type">Hidden Content:</div>
<blockquote>You must reply before you can see the hidden data contained here.</blockquote>
</div>
<div class="messageTextEndMarker">&nbsp;</div>
</blockquote>
</article>]]></description>
                <author><![CDATA[Eric Lyn]]></author>
                </item>

                
                <item>
                <title><![CDATA[【Albums (lossless)】FLAC - Ludwig Göransson - Oppenheimer (Original Motion Picture Soundtrack) [Qobuz, 24B-48kHz]]]></title>
                <link><![CDATA[https://sharemania.us/threads/ludwig-g%C3%B6ransson-oppenheimer-original-motion-picture-soundtrack-qobuz-24b-48khz.224927/]]></link>
                <description><![CDATA[<article>
<blockquote class="messageText SelectQuoteContainer ugc baseHtml">
<div style="text-align: center"><img src="https://i.imgur.com/9I7Brru.jpg" class="bbCodeImage LbImage" alt="[​IMG]" data-url="https://i.imgur.com/9I7Brru.jpg" style=""><br>
<br>
<b>Artist / Group: </b>Ludwig Göransson<br>
<b>Single / Album:</b> Oppenheimer (Original Motion Picture Soundtrack) <br>
<b>Date of Release:</b> 21/07/2023<br>
<b>Genre:</b> Soundtrack<br>
<b>Size: </b>949 MB<br>
<b>Format: </b>FLAC (24B/48kHz)<br>
<br>
<div class="bbCodeBlock bbCodeCode">
<div class="type">Code:</div>
<pre>01. Fission  04:38
02. Can You Hear The Music  01:50
03. A Lowly Shoe Salesman  03:34
04. Quantum Mechanics  03:00
05. Gravity Swallows Light  03:30
06. Meeting Kitty  05:47
07. Groves  03:03
08. Manhattan Project  03:01
09. American Prometheus  02:37
10. Atmospheric Ignition  03:28
11. Los Alamos  02:38
12. Fusion  03:55
13. Colonel Pash  04:57
14. Theorists  03:14
15. Ground Zero  04:21
16. Trinity  07:52
17. What We Have Done  05:45
18. Power Stays In The Shadows  04:10
19. The Trial  05:32
20. Dr. Hill  04:23
21. Kitty Comes To Testify  04:52
22. Something More Important  03:25
23. Destroyer Of Worlds  02:54
24. Oppenheimer  02:16</pre>
</div>
<div class="bbCodeBlock bbCodeVfcHH HiddenContent">
<div class="attribution type">Hidden Content:</div>
<blockquote>You must reply before you can see the hidden data contained here.</blockquote>
</div></div>
<div class="messageTextEndMarker">&nbsp;</div>
</blockquote>
</article>]]></description>
                <author><![CDATA[mavs88]]></author>
                </item>

                </channel></rss>